<svg width="16" height="17" viewBox="0 0 16 17" fill="none" xmlns="http://www.w3.org/2000/svg">
<g clip-path="url(#clip0_31088_1067)">
<path d="M15.7 14.4667L12.6 11.3667C13.5 10.1667 14 8.76675 14 7.16675C14 3.26675 10.9 0.166748 7 0.166748C3.1 0.166748 0 3.26675 0 7.16675C0 11.0667 3.1 14.1667 7 14.1667C8.6 14.1667 10 13.6667 11.2 12.7667L14.3 15.8667C14.5 16.0667 14.7 16.1667 15 16.1667C15.6 16.1667 16 15.7667 16 15.1667C16 14.9667 15.9 14.6667 15.7 14.4667ZM2 7.16675C2 4.36675 4.2 2.16675 7 2.16675C9.8 2.16675 12 4.36675 12 7.16675C12 9.96675 9.8 12.1667 7 12.1667C4.2 12.1667 2 9.96675 2 7.16675Z" fill="black"/>
</g>
<defs>
<clipPath id="clip0_31088_1067">
<rect width="16" height="16" fill="white" transform="translate(0 0.166748)"/>
</clipPath>
</defs>
</svg>
